/* XPM */
static char * lwjgl_logo_2a_xpm[] = {
"16 16 122 2",
"  	c #000000",
". 	c #010101",
"+ 	c #020202",
"@ 	c #030303",
"# 	c #0A0A0A",
"$ 	c #0C0C0C",
"% 	c #0E0E0E",
"& 	c #171717",
"* 	c #1B1B1B",
"= 	c #1D1D1D",
"- 	c #1F1F1F",
"; 	c #222222",
"> 	c #232323",
", 	c #2B2B2B",
"' 	c #2D2D2D",
") 	c #333333",
"! 	c #3D3D3D",
"~ 	c #404040",
"{ 	c #434343",
"] 	c #4A4A4A",
"^ 	c #4F4F4F",
"/ 	c #525252",
"( 	c #565656",
"_ 	c #585858",
": 	c #595959",
"< 	c #5C5C5C",
"[ 	c #5E5E5E",
"} 	c #5F5F5F",
"| 	c #666666",
"1 	c #686868",
"2 	c #6C6C6C",
"3 	c #6D6D6D",
"4 	c #397CB5",
"5 	c #3A7DB5",
"6 	c #3D7FB6",
"7 	c #3E80B6",
"8 	c #747474",
"9 	c #787878",
"0 	c #4886BA",
"a 	c #4C89BC",
"b 	c #4D89BC",
"c 	c #508BBD",
"d 	c #508CBD",
"e 	c #76828D",
"f 	c #548EBF",
"g 	c #5690C0",
"h 	c #848484",
"i 	c #5B92C1",
"j 	c #7D8D9B",
"k 	c #6096C3",
"l 	c #8C8C8C",
"m 	c #8D8F91",
"n 	c #669AC5",
"o 	c #919191",
"p 	c #6D9EC8",
"q 	c #8499AA",
"r 	c #959595",
"s 	c #71A1CA",
"t 	c #74A4CB",
"u 	c #9B9B9B",
"v 	c #77A5CC",
"w 	c #9C9EA0",
"x 	c #7CA8CE",
"y 	c #7EA9CE",
"z 	c #A1A1A1",
"A 	c #81ABCE",
"B 	c #82ACD0",
"C 	c #84ADD0",
"D 	c #A5A5A5",
"E 	c #A6A6A7",
"F 	c #86AFD2",
"G 	c #87B0D2",
"H 	c #A8A8A8",
"I 	c #8CB3D4",
"J 	c #8DB4D4",
"K 	c #91B6D5",
"L 	c #94B7D5",
"M 	c #97BAD8",
"N 	c #9EBFDA",
"O 	c #A2C1DC",
"P 	c #BCBCBC",
"Q 	c #BDBDBD",
"R 	c #BFBFBF",
"S 	c #C0C0C0",
"T 	c #B0C5D6",
"U 	c #C6C6C6",
"V 	c #CCCCCC",
"W 	c #CFCFCF",
"X 	c #D0D0D0",
"Y 	c #C2D7E8",
"Z 	c #D3D3D3",
"` 	c #C4D8E9",
" .	c #D4D4D4",
"..	c #C6D9E9",
"+.	c #D6D6D6",
"@.	c #D0E0ED",
"#.	c #DADEE1",
"$.	c #D2E1EE",
"%.	c #DFDFDF",
"&.	c #E4E4E4",
"*.	c #DAE7F1",
"=.	c #E5E5E5",
"-.	c #E6E6E6",
";.	c #E0EAF3",
">.	c #E2ECF4",
",.	c #E4EDF5",
"'.	c #E7EFF6",
").	c #EEEEEE",
"!.	c #E8F0F6",
"~.	c #EFEFEF",
"{.	c #EBF2F8",
"].	c #EDF3F8",
"^.	c #F2F2F2",
"/.	c #F5F5F5",
"(.	c #F6F6F6",
"_.	c #F4F8FB",
":.	c #FBFBFB",
"<.	c #FAFCFD",
"[.	c #FCFDFE",
"}.	c #FEFEFE",
"|.	c #FEFFFF",
"1.	c #FFFFFF",
"1.1.1.1.1.1.|.Y t c f F '.1.1.1.",
"1.1.1.1.1./.m e j q L 5 0 *.1.1.",
"1.1.1.1._.w         &.C 5 i [.1.",
"1.1.1.1.K }       ; 1.!.4 5 ` 1.",
"1.1.1...A =       | 1.@.5 5 J 1.",
"^.D %.O T #       H 1.M 5 5 s 1.",
"z   . > V X D h < ~.1.k 5 5 p 1.",
"[       W - @ , 2 U <.N v a x 1.",
"*     & +..       / =.! 1 E #.1.",
"8 %   : r         o u       + { ",
"1.).l R (         Z _         ) ",
"1.1.[.1.S ~ +   * :.&         9 ",
"1.1.$.y ;.1. .3 h Z           Q ",
"1.1.}.n 6 B ,.1.1.=.'       $ (.",
"1.1.1.>.b 5 7 G '.1.}.P ^ @ ] 1.",
"1.1.1.1.{.I g d v ].1.1.1.%.-.1."};
