/* XPM */
static char * lwjgl_32x32_xpm[] = {
"32 32 240 2",
"  	c #FFFFFF",
". 	c #FAFCFD",
"+ 	c #CBDDEC",
"@ 	c #93B7D6",
"# 	c #6FA0C9",
"$ 	c #5C93C2",
"% 	c #6096C3",
"& 	c #7AA7CD",
"* 	c #ACC8E0",
"= 	c #EDF3F8",
"- 	c #FCFDFE",
"; 	c #B5CEE3",
"> 	c #5A92C1",
", 	c #3A7DB5",
"' 	c #4585B9",
") 	c #A1C1DC",
"! 	c #FCFCFC",
"~ 	c #E2EAF1",
"{ 	c #B8CFE3",
"] 	c #AEC9E0",
"^ 	c #A3C2DC",
"/ 	c #98BAD8",
"( 	c #8CB3D3",
"_ 	c #81ACCF",
": 	c #6E9FC8",
"< 	c #3D7FB6",
"[ 	c #72A2CA",
"} 	c #F5F8FB",
"| 	c #D8D8D8",
"1 	c #313131",
"2 	c #242424",
"3 	c #404040",
"4 	c #525252",
"5 	c #656565",
"6 	c #747474",
"7 	c #8F8F8F",
"8 	c #F7F8F8",
"9 	c #ACC8DF",
"0 	c #3B7DB5",
"a 	c #79A7CD",
"b 	c #FEFEFE",
"c 	c #686868",
"d 	c #000000",
"e 	c #B6B6B6",
"f 	c #86AED1",
"g 	c #AECAE1",
"h 	c #D3E2EE",
"i 	c #E1EAF2",
"j 	c #282828",
"k 	c #020202",
"l 	c #DEDEDE",
"m 	c #5B92C1",
"n 	c #4886BA",
"o 	c #F4F8FB",
"p 	c #ECF3F8",
"q 	c #6499C5",
"r 	c #D7D9DB",
"s 	c #050505",
"t 	c #C0D5E7",
"u 	c #397CB5",
"v 	c #ABC8E0",
"w 	c #FEFFFF",
"x 	c #78A6CC",
"y 	c #7BA7CD",
"z 	c #9E9E9E",
"A 	c #E2ECF4",
"B 	c #377BB4",
"C 	c #669AC5",
"D 	c #C3D7E8",
"E 	c #397DB5",
"F 	c #B2CCE1",
"G 	c #585858",
"H 	c #A9A9A9",
"I 	c #BCD2E5",
"J 	c #4081B7",
"K 	c #EEF4F9",
"L 	c #DDE5ED",
"M 	c #1C1C1C",
"N 	c #070707",
"O 	c #E7E7E7",
"P 	c #85AED1",
"Q 	c #CCDEEC",
"R 	c #BAD2E5",
"S 	c #5790BF",
"T 	c #D0D1D1",
"U 	c #030303",
"V 	c #333333",
"W 	c #FDFDFD",
"X 	c #FBFCFD",
"Y 	c #508BBD",
"Z 	c #B1CCE2",
"` 	c #CACACA",
" .	c #373737",
"..	c #616161",
"+.	c #A2A2A2",
"@.	c #DDDDDD",
"#.	c #E4ECF3",
"$.	c #B1CBE1",
"%.	c #B4CDE2",
"&.	c #E6E6E6",
"*.	c #232323",
"=.	c #727272",
"-.	c #D8E5F0",
";.	c #A0C0DB",
">.	c #666666",
",.	c #060606",
"'.	c #272727",
").	c #D4D4D4",
"!.	c #F6F6F6",
"~.	c #D0D0D0",
"{.	c #979797",
"].	c #5E5E5E",
"^.	c #040404",
"/.	c #C0C0C0",
"(.	c #A2C1DB",
"_.	c #9EBFDA",
":.	c #FBFBFB",
"<.	c #252525",
"[.	c #5C5C5C",
"}.	c #EAEAEA",
"|.	c #B5B5B5",
"1.	c #E9E9E9",
"2.	c #B2B2B2",
"3.	c #BDBDBD",
"4.	c #6B9DC7",
"5.	c #DBDBDB",
"6.	c #838383",
"7.	c #5F5F5F",
"8.	c #0B0B0B",
"9.	c #767676",
"0.	c #B7B7B7",
"a.	c #F0F0F0",
"b.	c #F0F5F9",
"c.	c #4B88BB",
"d.	c #B2CCE2",
"e.	c #9A9A9A",
"f.	c #C5C5C5",
"g.	c #F7F7F7",
"h.	c #1D1D1D",
"i.	c #3C3C3C",
"j.	c #DFDFDF",
"k.	c #F3F7FA",
"l.	c #CCDDEB",
"m.	c #9EBEDA",
"n.	c #72A1C9",
"o.	c #4C89BB",
"p.	c #C9DCEB",
"q.	c #565656",
"r.	c #0F0F0F",
"s.	c #F9F9F9",
"t.	c #D1D1D1",
"u.	c #8E8E8E",
"v.	c #848484",
"w.	c #707070",
"x.	c #B0B0B0",
"y.	c #F9FBFC",
"z.	c #DCE8F2",
"A.	c #F6F9FC",
"B.	c #151515",
"C.	c #4E4E4E",
"D.	c #919191",
"E.	c #BBBBBB",
"F.	c #2F2F2F",
"G.	c #393939",
"H.	c #909090",
"I.	c #4D4D4D",
"J.	c #101010",
"K.	c #5A5A5A",
"L.	c #090909",
"M.	c #323232",
"N.	c #B1B1B1",
"O.	c #A1A1A1",
"P.	c #353535",
"Q.	c #F5F5F5",
"R.	c #131313",
"S.	c #454545",
"T.	c #F8F8F8",
"U.	c #2B2B2B",
"V.	c #BEBEBE",
"W.	c #505050",
"X.	c #C2C2C2",
"Y.	c #868686",
"Z.	c #D2D2D2",
"`.	c #010101",
" +	c #434343",
".+	c #DCDCDC",
"++	c #E0E0E0",
"@+	c #959595",
"#+	c #C8C8C8",
"$+	c #888888",
"%+	c #292929",
"&+	c #181818",
"*+	c #4A4A4A",
"=+	c #CFCFCF",
"-+	c #F1F6FA",
";+	c #4B4B4B",
">+	c #86AFD1",
",+	c #90B5D5",
"'+	c #EAF1F7",
")+	c #787878",
"!+	c #1B1B1B",
"~+	c #969696",
"{+	c #C6C6C6",
"]+	c #C3D8E9",
"^+	c #4383B8",
"/+	c #94B8D6",
"(+	c #F4F4F4",
"_+	c #A7A7A7",
":+	c #858585",
"<+	c #9D9D9D",
"[+	c #FAFBFD",
"}+	c #5D94C2",
"|+	c #4685B9",
"1+	c #98BBD8",
"2+	c #EFF4F9",
"3+	c #9B9B9B",
"4+	c #C5D9E9",
"5+	c #3B7EB6",
"6+	c #F2F6FA",
"7+	c #2C2C2C",
"8+	c #8FB5D5",
"9+	c #4A87BB",
"0+	c #FAFAFA",
"a+	c #6E6E6E",
"b+	c #85AFD1",
"c+	c #4D89BC",
"d+	c #A8C5DE",
"e+	c #0E0E0E",
"f+	c #B8B8B8",
"g+	c #FEFEFF",
"h+	c #B1CBE2",
"i+	c #4C89BC",
"j+	c #BFD4E7",
"k+	c #ECECEC",
"l+	c #939393",
"m+	c #81ACD0",
"n+	c #6599C5",
"o+	c #6197C4",
"p+	c #6C9EC8",
"q+	c #F7FAFC",
"                              . + @ # $ % & * =                 ",
"                          - ; > , , , , , , , ' ) -             ",
"                        ! ~ { ] ^ / ( _ : < , , , [ }           ",
"                      | 1 2 1 3 4 5 6 7 8 9 0 , , , a -         ",
"                    b c d d d d d d d d e b f , , , , g         ",
"                  h i j d d d d d d d k l   } m , , , n o       ",
"                p q r s d d d d d d d 2 b     t u , , , v       ",
"              w x y z d d d d d d d d 5       A B , , , C       ",
"              D E F G d d d d d d d d H       I , , , , J K     ",
"            . > < L M d d d d d d d N O       P , , , , E Q     ",
"    b       R , S T U d d d d d d d V W     X Y , , , , E Z     ",
"  `  ...+.@.#.$.%.&.*.d d d d d d d =.      -., , , , , , ;.    ",
"  >.d d d ,.'.>.).  !.~.{.].'.^.d U /.      (., , , , , , _.    ",
":.<.d d d d d d [.  }.7 |.1.W O 2.3.b       4., , , , , , )     ",
"5.U d d d d d d 6.  7.d d 8. .9.0.a.      b.c.< u , , , , d.    ",
"e.d d d d d d d f.g.h.d d d d d d N i.j.  X - k.l.m.n.o., p.    ",
"q.d d d d d d r.s.t.U d d d d d d d d u.  s.v.w.x.}.  y.z.A.    ",
"B.d d d d d d C.  D.d d d d d d d d d E.  z d d d ^.F.w.x.&.b   ",
"G.d d d d d d H.  I.d d d d d d d d J.a.  K.d d d d d d d L.M.N.",
"!.O.P.k d d k t.Q.R.d d d d d d d d S.b T.h.d d d d d d d d d U.",
"    ! V.W.s <.s.X.d d d d d d d d d Y.  Z.`.d d d d d d d d d  +",
"        b .+++  @+d d d d d d d d `.#+  u.d d d d d d d d d d $+",
"                j.%+d d d d d d d &+Q.  *+d d d d d d d d d d =+",
"          -+      s.|.;+,.d d d d 4   T.J.d d d d d d d d d M T.",
"          >+,+'+        5.)+!+d d ~+  {+d d d d d d d d d d K.  ",
"          ]+, ^+/+=         (+_+:+(+  Y.d d d d d d d d d d <+  ",
"          [+}+, , |+1+2+              3+d d d d d d d d d s @.  ",
"            4+5+, , , n m.6+          :.u.<.`.d d d d d d 7+!   ",
"              8+, , , , , 9+^ k.          0+x.S.^.d d d d a+    ",
"              - b+, , , , , , c+d+A.          b Z.c e+d `.f+    ",
"                g+h+i+E , , , , , c+j+              k+l+3+W     ",
"                    k.; m+n+o+p+8+4+q+                          "};
