{
    "asset": {
        "version": "2.0"
    },
    "scene": 0,
    "scenes": [
        {
            "nodes": [
                0
            ]
        }
    ],
    "skins" : [
      {
          "joints" : [ 1, 2, 3 ],
          "inverseBindMatrices": 6
      }
    ],
    "nodes": [
        {
            "name" : "root",
            "mesh" : 0,
            "skin" : 0,
            "children" : [1]
        },
        {
            "name" : "rootbone",
            "children" : [2]
        },
        {
            "name" : "childbone",
            "translation" : [0, 1.1, 0],
            "rotation" : [0.70710677, 0.0, 0.0, 0.70710677],
            "children" : [3]
        },
        {
            "name" : "childchildbone",
            "rotation" : [0.70710677, 0.0, 0.0, 0.70710677],
            "translation" : [0, 1.1, 0]
        }
    ],
    "meshes": [
        {
            "primitives": [
                {
                    "attributes": {
                        "POSITION": 0,
                        "NORMAL": 1,
                        "TEXCOORD_0": 2,
                        "JOINTS_0": 5,
                        "WEIGHTS_0": 4
                    },
                    "indices": 3,
                    "mode": 4,
                    "material": 0
                }
            ],
            "name": "cubes"
        }
    ],
    "animations" : [
      {
        "name" : "move",
        "samplers" : [
            {
                "input" : 7,
                "interpolation" : "LINEAR",
                "output" : 8
            }
        ],
        "channels" : [ {
        "sampler" : 0,
        "target" : {
          "node" : 2,
          "path" : "translation"
        }
      },{
                "sampler" : 0,
                "target" : {
                  "node" : 3,
                  "path" : "translation"
                }
              } ]
      }
    ],
    "accessors": [
        {
            "bufferView": 0,
            "byteOffset": 0,
            "componentType": 5126,
            "count": 72,
            "max": [
                0.5, 2.7, 0.5
            ],
            "min": [
                -0.5, -0.5, -0.5
            ],
            "type": "VEC3",
            "name": "position"
        },
        {
            "bufferView": 0,
            "byteOffset": 12,
            "componentType": 5126,
            "count": 72,
            "max": [
                1, 1, 1
            ],
            "min": [
                -1, -1, -1
            ],
            "type": "VEC3",
            "name": "normals"
        },
        {
            "bufferView": 0,
            "byteOffset": 24,
            "componentType": 5126,
            "count": 72,
            "max": [
                1, 0.75
            ],
            "min": [
                0, 0
            ],
            "type": "VEC2"
        },
        {
            "bufferView": 1,
            "byteOffset": 0,
            "componentType": 5123,
            "count": 108,
            "max": [
                71
            ],
            "min": [
                0
            ],
            "type": "SCALAR"
        },
        {
            "bufferView": 0,
            "byteOffset": 32,
            "componentType": 5126,
            "count": 72,
            "max": [
                1, 0, 0, 0
            ],
            "min": [
                1, 0, 0, 0
            ],
            "type": "VEC4"
        },
        {
            "bufferView": 2,
            "byteOffset": 0,
            "componentType": 5123,
            "count": 72,
            "max": [
                2, 0, 0, 0
            ],
            "min": [
                0, 0, 0, 0
            ],
            "type": "VEC4"
        },
        {
            "bufferView": 3,
            "byteOffset": 0,
            "componentType": 5126,
            "count": 3,
            "max": [
                1, 0, 0, 0,
                0, 1, 0, 0,
                0, 0, 1, 0,
                0, 0, 0, 1
            ],
            "min": [
                1, 0, 0, 0,
                0, 1, 0, 0,
                0, 0, 1, 0,
                0, -2.2, 0, 1
            ],
            "type": "MAT4"
        },
        {
            "bufferView": 4,
            "componentType": 5126,
            "count": 3,
            "max": [
                2
            ],
            "min": [
                0
            ],
            "type": "SCALAR"
        },
        {
            "bufferView": 5,
            "componentType": 5126,
            "count": 3,
            "max": [
                0, 2.1, 0
            ],
            "min": [
                0, 1.1, 0
            ],
            "type": "VEC3"
        },
         {
             "bufferView": 6,
             "componentType": 5126,
             "count": 3,
             "max": [
                 0, 2.1, 0
             ],
             "min": [
                 0, 1.1, 0
             ],
             "type": "VEC3"
         }
    ],
    "bufferViews": [
        {
            "buffer": 0,
            "byteOffset": 0,
            "byteLength": 3456,
            "target": 34962,
            "byteStride": 48,
            "name": "vertices"
        },
        {
            "buffer": 0,
            "byteOffset": 3456,
            "byteLength": 216,
            "target": 34963,
            "name": "indices"
        },
        {
            "buffer": 0,
            "byteOffset": 3672,
            "byteLength": 576,
            "target": 34962,
            "name": "bone weights"
        },
        {
            "buffer": 0,
            "byteOffset": 4248,
            "byteLength": 192,
            "name": "inversebindmat"
        },
        {
            "buffer": 1,
            "byteOffset": 0,
            "byteLength": 12,
            "name": "time"
        },
        {
            "buffer": 1,
            "byteOffset": 12,
            "byteLength": 36,
            "name": "childPos"
        },
         {
             "buffer": 1,
             "byteOffset": 48,
             "byteLength": 36,
             "name": "childChildPos"
         }

    ],
    "buffers": [
        {
            "byteLength": 4440,
            "uri": "data:application/octet-stream;base64,"
        },
        {
            "byteLength": 84,
            "uri": "data:application/octet-stream;base64,"
        }
    ],
    "materials": [
        {
            "pbrMetallicRoughness": {
                "baseColorTexture": {
                    "index": 0
                },
                "metallicFactor": 0.0
            },
            "emissiveFactor": [
                0.0,
                0.0,
                0.0
            ],
            "name": "cubecolors"
        }
    ],
    "textures": [
        {
            "source": 0
        }
    ],
    "images": [
        {
            "uri": "data:image/png;base64,"
        }
    ]
}
