<?xml version="1.0" encoding="utf-8"?>
<!-- Generator: Adobe Illustrator 12.0.1, SVG Export Plug-In . SVG Version: 6.00 Build 51448)  -->
<!DOCTYPE svg PUBLIC "-//W3C//DTD SVG 1.1//EN" "http://www.w3.org/Graphics/SVG/1.1/DTD/svg11.dtd" [
	<!ENTITY ns_svg "http://www.w3.org/2000/svg">
	<!ENTITY ns_xlink "http://www.w3.org/1999/xlink">
]>
<svg  version="1.1" xmlns="&ns_svg;" xmlns:xlink="&ns_xlink;" width="543.281" height="196.23" viewBox="0 0 543.281 196.23"
	 overflow="visible" enable-background="new 0 0 543.281 196.23" xml:space="preserve">
<g id="Layer_6">
</g>
<g id="Layer_2">
	<path display="none" opacity="0.61" fill="#DE923A" d="M536.093,118.816c-17.196,51.267-59.783,83.217-95.122,71.367
		c-35.338-11.853-50.048-63.028-32.853-114.288c17.195-51.269,59.782-83.217,95.118-71.362
		C538.579,16.382,553.287,67.556,536.093,118.816z"/>
	<path fill="#FFFFFF" d="M161.34,109.049c-16.054,47.862-55.868,77.672-88.928,66.585S25.565,116.751,41.617,68.897
		C57.671,21.033,97.485-8.775,130.542,2.316C163.605,13.4,177.392,61.194,161.34,109.049z"/>
	<path fill="#0A90CB" d="M157.985,107.256c-15.051,44.873-52.326,72.838-83.257,62.466C43.797,159.349,30.923,114.556,45.973,69.69
		C61.024,24.816,98.298-3.148,129.227,7.229C160.161,17.599,173.034,62.391,157.985,107.256z"/>
	<path fill="#FFFFFF" d="M180.458,94.522l-48-11.5c-2.02-0.532-5.155,0.337-6.955,1.197l10.151-37.832
		c0.936-3.473,0.061-7.84-1.75-10.831c-1.811-2.991-7.549-10.722-9.737-13.622s-3.939-3.61-6.528-3.738l-36.7-2.094
		c-4.949-0.335-10.023,3.617-11.332,8.826L59.458,65.647L27.873,58.02c-3.792-1.016-7.688,1.436-8.702,5.473L8.962,104.105
		c-1.016,4.038,1.007,8.071,4.622,9.792l142.5,76.584c4.75,2.5,9.169,1.462,10.667-4.501l19.305-77.485
		C187.554,102.535,185.318,95.803,180.458,94.522z"/>
	<g>
		<path d="M103.521,133.708c-1.006,4.003-4.428,6.12-7.644,4.728l-32.025-13.862c-3.216-1.393-5.109-5.359-4.229-8.861l8.855-35.227
			c0.88-3.501,4.303-5.621,7.646-4.732l33.288,8.838c3.342,0.888,5.236,4.853,4.229,8.854L103.521,133.708z"/>
		<g>
			<path d="M163.445,159.116c-1.16,4.615-5.048,7.144-8.683,5.648l-35.622-16.062c-3.635-1.495-5.744-6.04-4.71-10.156
				l10.566-42.111c1.034-4.113,4.922-6.645,8.685-5.653l37.468,9.87c3.762,0.99,5.873,5.535,4.713,10.149L163.445,159.116z"/>
			<path d="M50.911,111.844c-0.853,3.394-3.563,5.166-6.052,3.96L19.9,104.265c-2.49-1.208-3.918-4.532-3.19-7.427l7.481-29.591
				c0.728-2.894,3.438-4.67,6.054-3.967l26.056,7.002c2.616,0.702,4.045,4.024,3.192,7.418L50.911,111.844z"/>
			<path d="M108.224,68.855c-0.968,3.849-4.276,6.375-7.39,5.639L69.829,67.17c-3.113-0.736-4.955-4.045-4.113-7.393L74.181,26.1
				c0.842-3.348,4.151-5.875,7.391-5.644l32.269,2.3c3.24,0.23,5.082,3.538,4.116,7.386L108.224,68.855z"/>
		</g>
	</g>
	<line display="none" fill="#0092D2" x1="0" y1="108.564" x2="194.333" y2="196.23"/>
	<line display="none" fill="none" x1="214" y1="119.23" x2="21.667" y2="68.563"/>
</g>
<g id="Layer_4">
	<polygon points="227.728,31.353 243.953,31.353 216.963,112.878 244.745,112.878 241.184,122.614 197.334,122.614 	"/>
	<polygon points="255.668,31.432 250.207,122.614 265.404,122.614 280.838,98.157 282.342,122.614 299.281,122.614 340.123,31.432 
		322.79,31.59 294.373,95.188 293.186,76.706 278.226,76.904 267.185,94.357 270.984,31.432 	"/>
	<path fill="#0B0B0B" d="M323.62,88.421h16.978c0,0-4.097,12.703-5.462,17.096c-1.365,4.394,1.028,7.599,3.72,7.599
		c2.692,0,6.253-1.107,8.786-7.599c2.533-6.49,24.458-74.165,24.458-74.165l18.006,0.08c0,0-21.938,66.379-24.773,74.243
		c-5.225,14.484-13.852,17.889-30.117,17.889c-12.822,0-20.026-10.058-16.621-20.223C321.166,95.664,323.62,88.421,323.62,88.421z"
		/>
	<path fill="#0B0B0B" d="M444.126,64.358c0,0,2.643-7.251,4.274-13.455c2.612-9.934-0.95-20.263-19.313-20.263
		c-20.658,0-32.452,11.833-42.9,45.116c-11.267,35.894-2.968,47.57,11.16,47.57c8.074,0,11.636-2.612,11.636-2.612l-0.554,2.059
		h16.463l13.772-41.951h-24.299l-3.603,9.418l7.639-0.157c0,0-1.543,6.016-2.73,9.419s-4.314,13.297-12.704,13.297
		c-7.123,0-4.749-17.255,1.267-36.845c8.331-27.134,14.996-35.262,21.964-35.262c6.49,0,5.818,4.907,4.631,9.023
		c-1.617,5.603-4.749,14.563-4.749,14.563L444.126,64.358z"/>
	<polygon fill="#0B0B0B" points="483.069,31.432 465.498,31.59 435.459,122.733 487.343,122.614 490.667,112.878 457.662,112.878 	
		"/>
</g>
<g id="Layer_3">
	<g>
		<path d="M192.785,136.61h3.132l-3.727,11.92h5.634l-0.859,2.74h-8.767L192.785,136.61z"/>
		<path d="M198.663,151.27l3.33-10.637h3.111l-3.308,10.637H198.663z M204.099,139.242c-0.914,0-1.508-0.652-1.388-1.632
			c0.139-1.131,1.125-1.892,2.147-1.892c0.979,0,1.597,0.631,1.475,1.631c-0.147,1.196-1.146,1.893-2.212,1.893H204.099z"/>
		<path d="M204.942,152.75c0.544,0.348,1.798,0.587,2.712,0.587c1.566,0,2.805-0.696,3.523-2.828l0.286-0.913h-0.043
			c-0.96,1.088-1.979,1.588-3.24,1.588c-2.11,0-3.183-1.719-2.948-3.807c0.408-3.502,3.359-6.982,7.992-6.982
			c1.501,0,2.771,0.283,3.847,0.74l-2.687,8.766c-0.61,1.957-1.433,3.697-2.82,4.72c-1.265,0.914-2.845,1.196-4.259,1.196
			c-1.436,0-2.708-0.261-3.397-0.674L204.942,152.75z M213.45,142.983c-0.226-0.108-0.672-0.196-1.107-0.196
			c-1.893,0-3.5,2.11-3.746,4.111c-0.134,1.088,0.249,1.871,1.206,1.871c1.022,0,2.187-1.153,2.754-2.937L213.45,142.983z"/>
		<path d="M216.565,151.27l4.833-15.443h3.132l-1.955,6.178h0.043c1.012-0.979,2.199-1.61,3.591-1.61
			c1.653,0,2.547,1.045,2.323,2.872c-0.062,0.5-0.25,1.326-0.431,1.914l-1.901,6.09h-3.132l1.825-5.829
			c0.138-0.413,0.237-0.87,0.291-1.306c0.088-0.718-0.133-1.218-0.917-1.218c-1.109,0-2.384,1.349-3.038,3.48l-1.534,4.872H216.565z
			"/>
		<path d="M236.475,137.762l-0.896,2.871h2.284l-0.772,2.393h-2.262l-1.159,3.59c-0.141,0.435-0.294,0.979-0.34,1.348
			c-0.064,0.522,0.108,0.893,0.804,0.893c0.261,0,0.587,0,0.854-0.044l-0.65,2.458c-0.432,0.152-1.226,0.239-1.878,0.239
			c-1.893,0-2.667-0.957-2.501-2.306c0.069-0.565,0.207-1.152,0.479-1.958l1.323-4.22h-1.349l0.729-2.393h1.37l0.638-2.001
			L236.475,137.762z"/>
		<path d="M241.952,140.633l-0.534,4.524c-0.125,1.196-0.292,2.197-0.501,3.372h0.044c0.508-1.132,1.118-2.197,1.684-3.263
			l2.679-4.634h2.545l-0.289,4.481c-0.09,1.262-0.172,2.283-0.376,3.415h0.065c0.493-1.175,0.99-2.219,1.578-3.459l2.373-4.438
			h3.154l-6.484,10.637h-2.937l0.149-3.697c0.049-1.109,0.175-2.132,0.33-3.394h-0.065c-0.75,1.501-1.085,2.284-1.66,3.241
			l-2.278,3.85h-2.937l0.306-10.637H241.952z"/>
		<path d="M261.516,150.661c-1.317,0.631-2.889,0.849-4.063,0.849c-3.045,0-4.4-1.719-4.059-4.503
			c0.398-3.24,3.162-6.612,7.012-6.612c2.154,0,3.549,1.219,3.306,3.198c-0.332,2.696-3.084,3.676-7.334,3.566
			c-0.038,0.305,0.013,0.783,0.193,1.088c0.346,0.544,1.029,0.826,1.943,0.826c1.153,0,2.164-0.261,3.063-0.674L261.516,150.661z
			 M260.777,143.57c0.064-0.521-0.326-0.892-1.043-0.892c-1.458,0-2.434,1.218-2.771,2.197c2.434,0.021,3.692-0.305,3.812-1.283
			L260.777,143.57z"/>
		<path d="M263.442,151.27l3.329-10.637h3.111l-3.308,10.637H263.442z M268.879,139.242c-0.914,0-1.508-0.652-1.388-1.632
			c0.139-1.131,1.124-1.892,2.146-1.892c0.979,0,1.598,0.631,1.475,1.631c-0.147,1.196-1.146,1.893-2.212,1.893H268.879z"/>
		<path d="M269.721,152.75c0.545,0.348,1.799,0.587,2.712,0.587c1.566,0,2.805-0.696,3.523-2.828l0.286-0.913H276.2
			c-0.96,1.088-1.979,1.588-3.241,1.588c-2.11,0-3.182-1.719-2.948-3.807c0.409-3.502,3.359-6.982,7.993-6.982
			c1.501,0,2.771,0.283,3.846,0.74l-2.686,8.766c-0.61,1.957-1.434,3.697-2.82,4.72c-1.266,0.914-2.845,1.196-4.259,1.196
			c-1.436,0-2.709-0.261-3.397-0.674L269.721,152.75z M278.23,142.983c-0.226-0.108-0.672-0.196-1.107-0.196
			c-1.892,0-3.5,2.11-3.746,4.111c-0.133,1.088,0.249,1.871,1.206,1.871c1.022,0,2.187-1.153,2.754-2.937L278.23,142.983z"/>
		<path d="M281.345,151.27l4.833-15.443h3.133l-1.955,6.178h0.043c1.013-0.979,2.199-1.61,3.592-1.61
			c1.653,0,2.547,1.045,2.323,2.872c-0.062,0.5-0.25,1.326-0.432,1.914l-1.9,6.09h-3.133l1.825-5.829
			c0.138-0.413,0.237-0.87,0.291-1.306c0.088-0.718-0.133-1.218-0.916-1.218c-1.109,0-2.385,1.349-3.038,3.48l-1.533,4.872H281.345z
			"/>
		<path d="M301.254,137.762l-0.896,2.871h2.284l-0.772,2.393h-2.262l-1.159,3.59c-0.141,0.435-0.294,0.979-0.34,1.348
			c-0.063,0.522,0.108,0.893,0.805,0.893c0.261,0,0.587,0,0.854-0.044l-0.65,2.458c-0.432,0.152-1.226,0.239-1.878,0.239
			c-1.893,0-2.667-0.957-2.501-2.306c0.069-0.565,0.206-1.152,0.479-1.958l1.323-4.22h-1.349l0.729-2.393h1.37l0.638-2.001
			L301.254,137.762z"/>
		<path d="M312.664,136.61h3.133l-3.038,9.679c-1.175,3.72-2.946,5.221-6.275,5.221c-0.913,0-1.917-0.152-2.371-0.348l0.938-2.676
			c0.438,0.152,1.012,0.261,1.708,0.261c1.37,0,2.323-0.674,3.004-2.849L312.664,136.61z"/>
		<path d="M320.891,151.27c0.097-0.609,0.253-1.349,0.39-2.11h-0.044c-1.217,1.763-2.659,2.35-3.899,2.35
			c-1.914,0-3.037-1.479-2.765-3.697c0.44-3.589,3.304-7.418,8.524-7.418c1.283,0,2.603,0.239,3.438,0.522l-1.75,5.568
			c-0.43,1.37-0.903,3.458-1.023,4.785H320.891z M322.773,142.852c-0.233-0.043-0.489-0.087-0.815-0.087
			c-2.023,0-3.807,2.479-4.05,4.459c-0.129,1.044,0.196,1.762,1.066,1.762c0.936,0,2.263-1.065,3.063-3.676L322.773,142.852z"/>
		<path d="M331.268,140.633l-0.071,4.655c-0.052,1.305-0.042,2.109-0.072,2.893h0.064c0.377-0.761,0.802-1.565,1.55-2.871
			l2.706-4.677h3.502l-7.224,10.637h-3.197l-0.478-10.637H331.268z"/>
		<path d="M343.84,151.27c0.097-0.609,0.253-1.349,0.39-2.11h-0.044c-1.217,1.763-2.659,2.35-3.899,2.35
			c-1.914,0-3.038-1.479-2.766-3.697c0.441-3.589,3.305-7.418,8.525-7.418c1.283,0,2.603,0.239,3.438,0.522l-1.749,5.568
			c-0.43,1.37-0.904,3.458-1.023,4.785H343.84z M345.722,142.852c-0.233-0.043-0.489-0.087-0.815-0.087
			c-2.023,0-3.807,2.479-4.05,4.459c-0.129,1.044,0.196,1.762,1.066,1.762c0.936,0,2.263-1.065,3.063-3.676L345.722,142.852z"/>
		<path d="M365.175,150.596c-1.155,0.369-2.995,0.826-4.844,0.826c-2.001,0-3.612-0.522-4.675-1.609
			c-1.05-1.022-1.523-2.654-1.294-4.524c0.337-2.741,1.737-5.111,3.804-6.699c1.821-1.37,4.199-2.132,6.744-2.132
			c1.893,0,3.261,0.37,3.792,0.652l-1.262,2.654c-0.615-0.305-1.73-0.609-3.036-0.609c-1.457,0-2.791,0.413-3.863,1.175
			c-1.407,1-2.469,2.74-2.715,4.741c-0.302,2.458,1.004,3.698,3.31,3.698c0.739,0,1.253-0.109,1.642-0.262l0.967-3.088h-2.284
			l0.808-2.502h5.329L365.175,150.596z"/>
		<path d="M374.62,151.27c0.097-0.609,0.253-1.349,0.39-2.11h-0.043c-1.217,1.763-2.66,2.35-3.899,2.35
			c-1.915,0-3.038-1.479-2.766-3.697c0.44-3.589,3.304-7.418,8.524-7.418c1.283,0,2.603,0.239,3.438,0.522l-1.75,5.568
			c-0.43,1.37-0.903,3.458-1.022,4.785H374.62z M376.502,142.852c-0.234-0.043-0.49-0.087-0.816-0.087
			c-2.022,0-3.807,2.479-4.05,4.459c-0.128,1.044,0.197,1.762,1.067,1.762c0.936,0,2.263-1.065,3.062-3.676L376.502,142.852z"/>
		<path d="M379.645,151.27l2.208-7.178c0.427-1.349,0.721-2.502,0.969-3.459h2.697l-0.409,1.74h0.043
			c1.147-1.37,2.506-1.979,3.876-1.979c1.697,0,2.303,1.088,2.275,2.023c1.125-1.37,2.532-2.023,3.925-2.023
			c1.631,0,2.457,1.066,2.235,2.872c-0.053,0.435-0.244,1.283-0.398,1.826l-1.911,6.178h-3.046l1.779-5.808
			c0.138-0.413,0.26-0.87,0.311-1.283c0.091-0.739-0.172-1.262-0.89-1.262c-1.044,0-2.26,1.393-2.938,3.546l-1.481,4.807h-3.024
			l1.828-5.851c0.116-0.414,0.232-0.827,0.277-1.196c0.091-0.74-0.079-1.306-0.84-1.306c-1.066,0-2.357,1.479-2.983,3.567
			l-1.479,4.785H379.645z"/>
		<path d="M406.693,150.661c-1.317,0.631-2.889,0.849-4.063,0.849c-3.045,0-4.4-1.719-4.059-4.503
			c0.398-3.24,3.162-6.612,7.012-6.612c2.154,0,3.549,1.219,3.306,3.198c-0.331,2.696-3.083,3.676-7.334,3.566
			c-0.037,0.305,0.013,0.783,0.193,1.088c0.346,0.544,1.029,0.826,1.943,0.826c1.152,0,2.163-0.261,3.063-0.674L406.693,150.661z
			 M405.955,143.57c0.063-0.521-0.326-0.892-1.044-0.892c-1.457,0-2.434,1.218-2.771,2.197c2.434,0.021,3.692-0.305,3.813-1.283
			L405.955,143.57z"/>
		<path d="M417.337,136.61h3.133l-3.727,11.92h5.634l-0.858,2.74h-8.767L417.337,136.61z"/>
		<path d="M423.215,151.27l3.329-10.637h3.111l-3.308,10.637H423.215z M428.652,139.242c-0.914,0-1.508-0.652-1.388-1.632
			c0.139-1.131,1.124-1.892,2.146-1.892c0.979,0,1.598,0.631,1.475,1.631c-0.146,1.196-1.146,1.893-2.212,1.893H428.652z"/>
		<path d="M436.924,135.827l-2.01,6.091h0.043c0.898-0.936,2.167-1.523,3.473-1.523c2.219,0,2.995,1.827,2.763,3.72
			c-0.423,3.437-3.171,7.396-7.957,7.396c-2.523,0-3.651-1.088-3.419-2.979c0.08-0.653,0.27-1.306,0.478-1.937l3.476-10.767H436.924
			z M433.38,146.79c-0.107,0.348-0.221,0.739-0.253,1.174c-0.071,0.762,0.313,1.175,1.053,1.175c1.827,0,3.42-2.522,3.647-4.372
			c0.128-1.044-0.211-1.827-1.168-1.827c-1.131,0-2.38,1.132-2.977,2.98L433.38,146.79z"/>
		<path d="M441.183,151.27l1.996-6.329c0.48-1.61,0.852-3.394,1.072-4.308h2.698c-0.132,0.718-0.285,1.436-0.466,2.197h0.087
			c0.916-1.436,2.213-2.437,3.671-2.437c0.218,0,0.41,0.022,0.585,0.022l-0.986,3.066c-0.128-0.021-0.302-0.021-0.476-0.021
			c-1.979,0-3.153,1.762-3.801,3.85l-1.227,3.959H441.183z"/>
		<path d="M456.084,151.27c0.097-0.609,0.253-1.349,0.39-2.11h-0.043c-1.218,1.763-2.66,2.35-3.9,2.35
			c-1.914,0-3.037-1.479-2.765-3.697c0.44-3.589,3.304-7.418,8.524-7.418c1.283,0,2.603,0.239,3.438,0.522l-1.75,5.568
			c-0.43,1.37-0.903,3.458-1.023,4.785H456.084z M457.966,142.852c-0.233-0.043-0.489-0.087-0.815-0.087
			c-2.023,0-3.807,2.479-4.05,4.459c-0.128,1.044,0.196,1.762,1.066,1.762c0.936,0,2.264-1.065,3.063-3.676L457.966,142.852z"/>
		<path d="M461.087,151.27l1.995-6.329c0.48-1.61,0.853-3.394,1.073-4.308h2.697c-0.132,0.718-0.285,1.436-0.466,2.197h0.087
			c0.916-1.436,2.214-2.437,3.672-2.437c0.217,0,0.41,0.022,0.584,0.022l-0.985,3.066c-0.128-0.021-0.302-0.021-0.476-0.021
			c-1.98,0-3.153,1.762-3.802,3.85l-1.226,3.959H461.087z"/>
		<path d="M474.815,140.633l0.083,4.634c0.017,1.109,0.031,1.87,0.035,2.545h0.044c0.319-0.653,0.645-1.349,1.242-2.502l2.511-4.677
			h3.307l-4.744,7.635c-1.762,2.828-3.261,4.764-4.838,6.091c-1.385,1.175-2.928,1.696-3.637,1.805l-0.368-2.675
			c0.52-0.152,1.247-0.413,1.91-0.849c0.779-0.5,1.466-1.131,1.967-1.849c0.106-0.152,0.122-0.283,0.105-0.5l-0.902-9.658H474.815z"
			/>
	</g>
	<g display="none">
		<path display="inline" d="M261.5,171.218l11.574-34.969h14.483c2.508,0,4.354,0.29,5.537,0.871
			c1.183,0.581,2.099,1.575,2.746,2.982s0.863,2.986,0.648,4.735c-0.178,1.447-0.65,2.92-1.418,4.414
			c-0.768,1.496-1.656,2.729-2.667,3.699c-1.011,0.97-2.004,1.701-2.979,2.194s-2,0.859-3.069,1.098
			c-2.29,0.524-4.57,0.787-6.843,0.787h-8.687l-4.696,14.188H261.5z M272.139,153.062h7.648c2.968,0,5.186-0.321,6.653-0.966
			c1.468-0.644,2.702-1.626,3.701-2.947c0.999-1.32,1.59-2.721,1.771-4.201c0.141-1.145,0.035-2.08-0.317-2.805
			c-0.354-0.724-0.911-1.257-1.673-1.6c-0.763-0.342-2.287-0.513-4.574-0.513h-8.896L272.139,153.062z"/>
		<path display="inline" d="M295.298,161.598c0.607-4.943,2.554-9.037,5.84-12.28c2.711-2.671,5.999-4.006,9.865-4.006
			c3.03,0,5.354,0.954,6.975,2.862c1.62,1.907,2.23,4.482,1.833,7.725c-0.357,2.91-1.273,5.616-2.749,8.12s-3.372,4.424-5.689,5.759
			c-2.318,1.336-4.669,2.003-7.052,2.003c-1.957,0-3.685-0.421-5.183-1.264s-2.575-2.035-3.229-3.577
			C295.253,165.398,295.05,163.618,295.298,161.598z M299.632,161.168c-0.293,2.383,0.053,4.19,1.037,5.422s2.352,1.847,4.103,1.847
			c0.915,0,1.845-0.187,2.789-0.56s1.85-0.941,2.717-1.705c0.866-0.762,1.632-1.632,2.295-2.609
			c0.664-0.977,1.231-2.029,1.701-3.158c0.682-1.572,1.112-3.082,1.29-4.527c0.28-2.288-0.073-4.063-1.062-5.326
			c-0.988-1.264-2.35-1.896-4.084-1.896c-1.341,0-2.603,0.321-3.785,0.966c-1.184,0.643-2.297,1.584-3.339,2.824
			c-1.044,1.238-1.875,2.681-2.495,4.325S299.791,159.881,299.632,161.168z"/>
		<path display="inline" d="M325.079,171.218l0.487-25.344h4.125l-0.293,11.395l-0.315,6.391c-0.04,0.478-0.108,1.435-0.207,2.871
			c0.68-1.612,1.239-2.853,1.68-3.718s1.123-2.101,2.048-3.706l7.588-13.232h4.656l-0.74,12.681c-0.115,1.925-0.349,4.489-0.7,7.694
			c1.066-2.124,2.718-5.082,4.953-8.872l6.815-11.503h4.313l-15.44,25.344h-4.438l0.9-14.858c0.043-0.922,0.209-2.719,0.498-5.392
			c-0.865,1.694-1.855,3.528-2.971,5.505l-8.459,14.745H325.079z"/>
		<path display="inline" d="M374.843,162.625l4.112,0.438c-0.855,2.075-2.475,4.047-4.858,5.915
			c-2.385,1.869-5.069,2.804-8.053,2.804c-1.863,0-3.52-0.434-4.968-1.3c-1.449-0.865-2.479-2.126-3.088-3.779
			c-0.61-1.653-0.785-3.537-0.526-5.651c0.34-2.767,1.305-5.448,2.895-8.048c1.591-2.6,3.474-4.531,5.65-5.795
			c2.176-1.264,4.44-1.896,6.793-1.896c3,0,5.28,0.938,6.842,2.815c1.563,1.876,2.145,4.436,1.746,7.68
			c-0.152,1.241-0.42,2.514-0.801,3.817h-18.512c-0.123,0.493-0.209,0.938-0.258,1.335c-0.291,2.366,0.027,4.173,0.955,5.42
			s2.173,1.87,3.735,1.87c1.467,0,2.97-0.482,4.509-1.448C372.555,165.836,373.832,164.444,374.843,162.625z M363.165,156.343
			h14.103c0.07-0.446,0.118-0.767,0.142-0.958c0.267-2.171-0.065-3.836-0.996-4.993s-2.24-1.736-3.928-1.736
			c-1.83,0-3.576,0.639-5.239,1.916C365.582,151.849,364.221,153.773,363.165,156.343z"/>
		<path display="inline" d="M382.333,171.218l8.362-25.344h3.814l-1.712,5.185c1.541-1.955,2.987-3.402,4.342-4.34
			c1.354-0.938,2.677-1.407,3.971-1.407c0.853,0,1.863,0.313,3.033,0.938l-2.242,4c-0.676-0.542-1.455-0.813-2.338-0.813
			c-1.499,0-3.144,0.845-4.934,2.532c-1.789,1.688-3.407,4.721-4.853,9.098l-3.374,10.151H382.333z"/>
		<path display="inline" d="M417.95,162.625l4.111,0.438c-0.854,2.075-2.475,4.047-4.858,5.915
			c-2.385,1.869-5.069,2.804-8.053,2.804c-1.863,0-3.52-0.434-4.968-1.3c-1.448-0.865-2.478-2.126-3.088-3.779
			s-0.785-3.537-0.525-5.651c0.34-2.767,1.304-5.448,2.895-8.048c1.59-2.6,3.474-4.531,5.649-5.795s4.44-1.896,6.794-1.896
			c2.999,0,5.28,0.938,6.842,2.815c1.562,1.876,2.144,4.436,1.745,7.68c-0.152,1.241-0.419,2.514-0.801,3.817h-18.512
			c-0.123,0.493-0.209,0.938-0.258,1.335c-0.29,2.366,0.027,4.173,0.956,5.42c0.928,1.247,2.173,1.87,3.734,1.87
			c1.468,0,2.971-0.482,4.509-1.448C415.661,165.836,416.937,164.444,417.95,162.625z M406.27,156.343h14.104
			c0.07-0.446,0.117-0.767,0.141-0.958c0.267-2.171-0.065-3.836-0.996-4.993s-2.24-1.736-3.928-1.736
			c-1.83,0-3.576,0.639-5.239,1.916C408.687,151.849,407.327,153.773,406.27,156.343z"/>
		<path display="inline" d="M442.803,167.545c-2.794,2.824-5.524,4.235-8.192,4.235c-2.384,0-4.261-0.886-5.629-2.659
			c-1.369-1.771-1.847-4.344-1.433-7.714c0.379-3.084,1.352-5.901,2.92-8.453s3.374-4.463,5.417-5.735
			c2.042-1.271,4.011-1.907,5.905-1.907c3.126,0,5.299,1.521,6.521,4.563l4.514-13.625h4.25l-11.544,34.969h-3.938L442.803,167.545z
			 M431.899,160.594c-0.217,1.763-0.213,3.152,0.01,4.168c0.224,1.018,0.713,1.863,1.468,2.537c0.755,0.676,1.718,1.013,2.889,1.013
			c1.944,0,3.832-1.016,5.663-3.047c2.45-2.697,3.919-6.029,4.406-9.997c0.246-2.004-0.083-3.57-0.988-4.699
			s-2.148-1.694-3.729-1.694c-1.028,0-1.993,0.23-2.896,0.69c-0.902,0.461-1.837,1.243-2.803,2.347
			c-0.966,1.104-1.838,2.505-2.615,4.204C432.525,157.815,432.057,159.308,431.899,160.594z"/>
	</g>
</g>
</svg>
